<svg width="388" height="50" viewBox="0 0 388 50" fill="none" xmlns="http://www.w3.org/2000/svg">
<rect x="114" y="8" width="154" height="32" fill="black"/>
<path d="M131.171 22.72C133.411 23.0667 135.184 23.8933 136.491 25.2C137.797 26.48 138.451 28.0667 138.451 29.96C138.451 32.44 137.304 34.4 135.011 35.84C132.744 37.28 129.184 38 124.331 38H113.491C112.824 38 112.491 37.72 112.491 37.16V37C112.491 36.6533 112.757 36.12 113.291 35.4C113.851 34.6533 114.131 33.92 114.131 33.2V14.4C114.131 13.68 113.851 12.96 113.291 12.24C112.757 11.4933 112.491 10.9467 112.491 10.6V10.44C112.491 9.88 112.824 9.6 113.491 9.6H125.131C128.651 9.6 131.277 10.28 133.011 11.64C134.744 12.9733 135.611 14.7067 135.611 16.84C135.611 18.3067 135.211 19.56 134.411 20.6C133.611 21.64 132.531 22.3467 131.171 22.72ZM122.251 14.96V19.24C122.251 19.9333 122.464 20.48 122.891 20.88C123.317 21.28 123.891 21.48 124.611 21.48H125.971C126.771 21.48 127.411 21.1733 127.891 20.56C128.397 19.92 128.651 19.0667 128.651 18C128.651 16.3467 128.304 15.0533 127.611 14.12C126.917 13.1867 125.997 12.72 124.851 12.72H124.331C122.944 12.72 122.251 13.4667 122.251 14.96ZM126.971 34.88C127.797 34.88 128.477 34.5333 129.011 33.84C129.544 33.12 129.811 32.2267 129.811 31.16C129.811 29.5867 129.197 28.0933 127.971 26.68C126.771 25.2667 125.144 24.56 123.091 24.56H122.251V31.08C122.251 32.1733 122.557 33.08 123.171 33.8C123.784 34.52 124.597 34.88 125.611 34.88H126.971ZM141.342 38C140.676 38 140.342 37.72 140.342 37.16V37C140.342 36.6533 140.609 36.12 141.142 35.4C141.702 34.6533 141.982 33.92 141.982 33.2V14.4C141.982 13.68 141.702 12.96 141.142 12.24C140.609 11.4933 140.342 10.9467 140.342 10.6V10.44C140.342 9.88 140.676 9.6 141.342 9.6H159.982C160.462 9.6 160.809 9.70667 161.022 9.92C161.236 10.1067 161.382 10.44 161.462 10.92L162.422 16.28C162.476 16.6533 162.396 16.96 162.182 17.2C161.969 17.4133 161.676 17.52 161.302 17.52H161.062C160.502 17.52 159.942 17.2667 159.382 16.76C158.822 16.2533 158.329 15.7067 157.902 15.12C157.502 14.5067 156.982 13.9467 156.342 13.44C155.702 12.9333 155.049 12.68 154.382 12.68H152.142C150.809 12.68 150.142 13.3733 150.142 14.76V22.04H153.542C154.076 22.04 154.542 21.8667 154.942 21.52C155.342 21.1467 155.636 20.7467 155.822 20.32C156.036 19.8933 156.276 19.5067 156.542 19.16C156.809 18.7867 157.076 18.6 157.342 18.6H157.742C158.302 18.6 158.582 18.9333 158.582 19.6V27.4C158.582 28.0667 158.302 28.4 157.742 28.4H157.342C157.076 28.4 156.809 28.24 156.542 27.92C156.276 27.5733 156.036 27.2 155.822 26.8C155.636 26.3733 155.342 26 154.942 25.68C154.542 25.3333 154.076 25.16 153.542 25.16H150.142V31.72C150.142 32.5733 150.342 33.32 150.742 33.96C151.169 34.6 151.849 34.92 152.782 34.92H155.662C156.329 34.92 156.956 34.6533 157.542 34.12C158.129 33.5867 158.596 33 158.942 32.36C159.316 31.6933 159.769 31.0933 160.302 30.56C160.836 30.0267 161.396 29.76 161.982 29.76H162.382C162.729 29.76 162.982 29.9067 163.142 30.2C163.329 30.4667 163.396 30.76 163.342 31.08L162.462 36.6C162.382 37.1067 162.236 37.4667 162.022 37.68C161.809 37.8933 161.462 38 160.982 38H141.342ZM172.14 38C171.5 38 171.18 37.72 171.18 37.16V37C171.18 36.6533 171.473 36.12 172.06 35.4C172.646 34.6533 172.94 33.92 172.94 33.2V12.96H171.74C171.1 12.96 170.5 13.2267 169.94 13.76C169.406 14.2667 168.98 14.8267 168.66 15.44C168.366 16.0533 168.006 16.6267 167.58 17.16C167.153 17.6667 166.713 17.92 166.26 17.92H165.5C165.126 17.92 164.833 17.8133 164.62 17.6C164.406 17.36 164.326 17.0533 164.38 16.68L165.18 10.92C165.286 10.04 165.78 9.6 166.66 9.6H187.38C188.26 9.6 188.753 10.04 188.86 10.92L189.66 16.68C189.713 17.0533 189.633 17.36 189.42 17.6C189.206 17.8133 188.913 17.92 188.54 17.92H187.78C187.326 17.92 186.886 17.6667 186.46 17.16C186.033 16.6267 185.66 16.0533 185.34 15.44C185.046 14.8267 184.62 14.2667 184.06 13.76C183.526 13.2267 182.94 12.96 182.3 12.96H181.1V33.2C181.1 33.92 181.393 34.6533 181.98 35.4C182.593 36.12 182.9 36.6533 182.9 37V37.16C182.9 37.72 182.566 38 181.9 38H172.14ZM204.129 38.4C201.463 38.4 199.063 37.6933 196.929 36.28C194.796 34.8667 193.169 33.0267 192.049 30.76C190.929 28.4933 190.369 26.04 190.369 23.4C190.369 19.32 191.583 15.9467 194.009 13.28C196.463 10.5867 199.689 9.24 203.689 9.24C206.889 9.24 209.649 9.97333 211.969 11.44C214.316 12.88 215.489 14.7067 215.489 16.92C215.489 17.9867 215.156 18.8533 214.489 19.52C213.823 20.16 212.903 20.48 211.729 20.48C210.716 20.48 209.809 20.2 209.009 19.64C208.236 19.08 207.596 18.4133 207.089 17.64C206.609 16.84 206.143 16.0533 205.689 15.28C205.263 14.48 204.743 13.8 204.129 13.24C203.516 12.68 202.836 12.4 202.089 12.4C201.049 12.4 200.156 12.9333 199.409 14C198.663 15.04 198.289 16.4933 198.289 18.36C198.289 22.0933 199.143 25.1467 200.849 27.52C202.583 29.8667 204.596 31.04 206.889 31.04C207.369 31.04 207.809 31.0133 208.209 30.96C208.636 30.88 209.036 30.7467 209.409 30.56C209.809 30.3467 210.129 30.1867 210.369 30.08C210.609 29.9467 210.889 29.72 211.209 29.4C211.556 29.08 211.783 28.8667 211.889 28.76C212.023 28.6533 212.236 28.4133 212.529 28.04C212.849 27.6667 213.023 27.4667 213.049 27.44C213.449 26.96 213.943 26.8 214.529 26.96C215.116 27.12 215.409 27.5333 215.409 28.2C215.409 31 214.449 33.4 212.529 35.4C210.609 37.4 207.809 38.4 204.129 38.4ZM218.725 38C218.058 38 217.725 37.72 217.725 37.16V37C217.725 36.6533 217.992 36.12 218.525 35.4C219.085 34.6533 219.365 33.92 219.365 33.2V14.4C219.365 13.68 219.085 12.96 218.525 12.24C217.992 11.4933 217.725 10.9467 217.725 10.6V10.44C217.725 9.88 218.058 9.6 218.725 9.6H228.445C229.112 9.6 229.445 9.88 229.445 10.44V10.6C229.445 10.9467 229.138 11.4933 228.525 12.24C227.938 12.96 227.645 13.68 227.645 14.4V22H236.765L236.805 14.4C236.805 13.68 236.538 12.96 236.005 12.24C235.472 11.4933 235.205 10.9467 235.205 10.6V10.44C235.205 9.88 235.525 9.6 236.165 9.6H245.885C246.552 9.6 246.885 9.88 246.885 10.44V10.6C246.885 10.9467 246.578 11.4933 245.965 12.24C245.352 12.96 245.045 13.68 245.045 14.4V33.2C245.045 33.92 245.352 34.6533 245.965 35.4C246.578 36.12 246.885 36.6533 246.885 37V37.16C246.885 37.72 246.552 38 245.885 38H236.165C235.525 38 235.205 37.72 235.205 37.16V37C235.205 36.6533 235.472 36.12 236.005 35.4C236.538 34.6533 236.805 33.92 236.805 33.2L236.765 25.44H227.645L227.605 33.2C227.605 33.92 227.912 34.6533 228.525 35.4C229.138 36.12 229.445 36.6533 229.445 37V37.16C229.445 37.72 229.112 38 228.445 38H218.725ZM274.916 33.2C275.236 33.9467 275.716 34.6667 276.356 35.36C277.023 36.0533 277.356 36.6 277.356 37V37.16C277.356 37.72 277.023 38 276.356 38H264.716C264.05 38 263.716 37.72 263.716 37.16V37C263.716 36.7333 263.836 36.4533 264.076 36.16C264.343 35.8667 264.61 35.6133 264.876 35.4C265.17 35.16 265.396 34.8533 265.556 34.48C265.716 34.08 265.716 33.6533 265.556 33.2L264.916 31.36H255.556L254.916 33.2C254.756 33.6533 254.756 34.08 254.916 34.48C255.076 34.8533 255.29 35.16 255.556 35.4C255.85 35.6133 256.116 35.8667 256.356 36.16C256.623 36.4533 256.756 36.7333 256.756 37V37.16C256.756 37.72 256.423 38 255.756 38H249.236C248.57 38 248.236 37.72 248.236 37.16V37C248.236 36.6 248.57 36.0667 249.236 35.4C249.903 34.7333 250.383 34 250.676 33.2L257.796 14.76C258.036 14.12 257.836 13.32 257.196 12.36C256.583 11.4 256.276 10.8133 256.276 10.6V10.44C256.276 9.88 256.61 9.6 257.276 9.6H263.196C264.583 9.6 265.57 10.2933 266.156 11.68L274.916 33.2ZM256.756 28H263.796L260.356 17.88L256.756 28Z" fill="white"/>
<path d="M131.171 22.72L129.847 17.8984L130.406 27.6612L131.171 22.72ZM136.491 25.2L132.955 28.7355L132.973 28.7538L132.992 28.7718L136.491 25.2ZM135.011 35.84L132.352 31.6055L132.341 31.6126L132.33 31.6196L135.011 35.84ZM113.291 35.4L109.291 32.4L109.282 32.4119L109.273 32.4239L113.291 35.4ZM113.291 12.24L109.222 15.1462L109.281 15.2292L109.344 15.3097L113.291 12.24ZM133.011 11.64L129.924 15.5737L129.943 15.5885L129.962 15.6031L133.011 11.64ZM134.411 20.6L138.374 23.6486V23.6486L134.411 20.6ZM122.891 20.88L126.31 17.2323V17.2323L122.891 20.88ZM127.891 20.56L123.971 17.4565L123.962 17.4674L123.953 17.4785L127.891 20.56ZM127.611 14.12L123.597 17.1016V17.1016L127.611 14.12ZM129.011 33.84L132.974 36.8886L133.002 36.8526L133.029 36.8161L129.011 33.84ZM127.971 26.68L124.159 29.9162L124.177 29.9369L124.195 29.9574L127.971 26.68ZM122.251 24.56V19.56H117.251V24.56H122.251ZM123.171 33.8L126.977 30.5577L123.171 33.8ZM130.406 27.6612C131.839 27.8829 132.556 28.3363 132.955 28.7355L140.026 21.6645C137.812 19.4504 134.983 18.2504 131.935 17.7788L130.406 27.6612ZM132.992 28.7718C133.301 29.075 133.451 29.3578 133.451 29.96H143.451C143.451 26.7756 142.294 23.885 139.99 21.6282L132.992 28.7718ZM133.451 29.96C133.451 30.5388 133.349 30.9798 132.352 31.6055L137.67 40.0745C141.26 37.8202 143.451 34.3412 143.451 29.96H133.451ZM132.33 31.6196C131.283 32.2847 128.896 33 124.331 33V43C129.472 43 134.205 42.2753 137.692 40.0604L132.33 31.6196ZM124.331 33H113.491V43H124.331V33ZM113.491 33C113.736 33 114.852 33.0333 115.957 33.9615C117.229 35.0299 117.491 36.4183 117.491 37.16H107.491C107.491 38.4617 107.92 40.2701 109.525 41.6185C110.963 42.8267 112.579 43 113.491 43V33ZM117.491 37.16V37H107.491V37.16H117.491ZM117.491 37C117.491 37.5348 117.392 37.9383 117.326 38.155C117.257 38.3812 117.188 38.5266 117.163 38.5761C117.119 38.6631 117.138 38.6067 117.309 38.3761L109.273 32.4239C108.91 32.9133 108.529 33.4836 108.219 34.1039C107.954 34.6322 107.491 35.6797 107.491 37H117.491ZM117.291 38.4C118.307 37.045 119.131 35.2843 119.131 33.2H109.131C109.131 32.8976 109.192 32.6578 109.25 32.5065C109.304 32.3655 109.343 32.3309 109.291 32.4L117.291 38.4ZM119.131 33.2V14.4H109.131V33.2H119.131ZM119.131 14.4C119.131 12.3004 118.295 10.5302 117.238 9.17029L109.344 15.3097C109.379 15.3544 109.325 15.2966 109.261 15.1322C109.193 14.9569 109.131 14.7039 109.131 14.4H119.131ZM117.359 9.33381C117.182 9.08493 117.152 9.01046 117.185 9.07788C117.204 9.11709 117.268 9.25235 117.332 9.46732C117.393 9.67098 117.491 10.0683 117.491 10.6H107.491C107.491 11.9058 107.946 12.9473 108.197 13.4621C108.496 14.0762 108.867 14.6484 109.222 15.1462L117.359 9.33381ZM117.491 10.6V10.44H107.491V10.6H117.491ZM117.491 10.44C117.491 11.1817 117.229 12.5701 115.957 13.6385C114.852 14.5667 113.736 14.6 113.491 14.6V4.6C112.579 4.6 110.963 4.77332 109.525 5.98148C107.92 7.3299 107.491 9.13834 107.491 10.44H117.491ZM113.491 14.6H125.131V4.6H113.491V14.6ZM125.131 14.6C128.155 14.6 129.461 15.2099 129.924 15.5737L136.097 7.70631C133.094 5.35009 129.147 4.6 125.131 4.6V14.6ZM129.962 15.6031C130.501 16.0178 130.611 16.304 130.611 16.84H140.611C140.611 13.1093 138.987 9.9289 136.059 7.67688L129.962 15.6031ZM130.611 16.84C130.611 17.3409 130.496 17.4881 130.448 17.5514L138.374 23.6486C139.925 21.6319 140.611 19.2725 140.611 16.84H130.611ZM130.448 17.5514C130.362 17.6627 130.241 17.7902 129.847 17.8984L132.494 27.5416C134.82 26.9032 136.859 25.6173 138.374 23.6486L130.448 17.5514ZM117.251 14.96V19.24H127.251V14.96H117.251ZM117.251 19.24C117.251 21.0371 117.85 23.0076 119.471 24.5277L126.31 17.2323C126.643 17.5441 126.905 17.9334 127.069 18.3523C127.225 18.7531 127.251 19.0754 127.251 19.24H117.251ZM119.471 24.5277C121.027 25.9868 122.929 26.48 124.611 26.48V16.48C124.71 16.48 124.957 16.4936 125.288 16.609C125.635 16.73 125.995 16.9363 126.31 17.2323L119.471 24.5277ZM124.611 26.48H125.971V16.48H124.611V26.48ZM125.971 26.48C128.26 26.48 130.371 25.5037 131.828 23.6415L123.953 17.4785C124.141 17.2388 124.45 16.9517 124.89 16.7409C125.326 16.5321 125.719 16.48 125.971 16.48V26.48ZM131.811 23.6635C133.206 21.9014 133.651 19.8454 133.651 18H123.651C123.651 18.1438 123.633 18.1331 123.668 18.017C123.706 17.8885 123.794 17.6794 123.971 17.4565L131.811 23.6635ZM133.651 18C133.651 15.7119 133.178 13.23 131.624 11.1384L123.597 17.1016C123.43 16.8767 123.651 16.9815 123.651 18H133.651ZM131.624 11.1384C130.003 8.95618 127.605 7.72 124.851 7.72V17.72C124.727 17.72 124.455 17.6895 124.139 17.5291C123.825 17.37 123.653 17.1768 123.597 17.1016L131.624 11.1384ZM124.851 7.72H124.331V17.72H124.851V7.72ZM124.331 7.72C122.768 7.72 120.704 8.15815 119.107 9.87774C117.575 11.5274 117.251 13.5309 117.251 14.96H127.251C127.251 14.9649 127.251 15.0115 127.24 15.0925C127.229 15.1737 127.206 15.2997 127.157 15.4584C127.055 15.7871 126.844 16.242 126.435 16.6823C125.531 17.6552 124.507 17.72 124.331 17.72V7.72ZM126.971 39.88C129.452 39.88 131.558 38.7292 132.974 36.8886L125.048 30.7914C125.168 30.6356 125.418 30.3754 125.83 30.1655C126.25 29.951 126.662 29.88 126.971 29.88V39.88ZM133.029 36.8161C134.314 35.0802 134.811 33.0882 134.811 31.16H124.811C124.811 31.2774 124.796 31.2785 124.82 31.1998C124.846 31.113 124.9 30.9891 124.993 30.8639L133.029 36.8161ZM134.811 31.16C134.811 28.1626 133.606 25.5443 131.747 23.4026L124.195 29.9574C124.789 30.6424 124.811 31.0108 124.811 31.16H134.811ZM131.782 23.4438C129.523 20.7829 126.434 19.56 123.091 19.56V29.56C123.854 29.56 124.019 29.7505 124.159 29.9162L131.782 23.4438ZM123.091 19.56H122.251V29.56H123.091V19.56ZM117.251 24.56V31.08H127.251V24.56H117.251ZM117.251 31.08C117.251 33.1656 117.862 35.279 119.365 37.0423L126.977 30.5577C127.087 30.6864 127.17 30.8379 127.217 30.978C127.261 31.1084 127.251 31.1582 127.251 31.08H117.251ZM119.365 37.0423C121.002 38.9649 123.251 39.88 125.611 39.88V29.88C125.704 29.88 125.951 29.899 126.265 30.0379C126.587 30.1808 126.828 30.3832 126.977 30.5577L119.365 37.0423ZM125.611 39.88H126.971V29.88H125.611V39.88ZM141.142 35.4L137.142 32.4L137.133 32.4119L137.125 32.4239L141.142 35.4ZM141.142 12.24L137.074 15.1462L137.133 15.2292L137.196 15.3097L141.142 12.24ZM161.022 9.92L157.487 13.4555L157.605 13.5733L157.73 13.6829L161.022 9.92ZM161.462 10.92L156.53 11.742L156.535 11.7718L156.541 11.8015L161.462 10.92ZM162.422 16.28L167.372 15.5729L167.36 15.4854L167.344 15.3985L162.422 16.28ZM162.182 17.2L165.718 20.7355L165.822 20.6316L165.919 20.5218L162.182 17.2ZM159.382 16.76L156.028 20.4677L156.028 20.4677L159.382 16.76ZM157.902 15.12L153.714 17.8513L153.784 17.9579L153.859 18.0609L157.902 15.12ZM150.142 22.04H145.142V27.04H150.142V22.04ZM154.942 21.52L158.217 25.2984L158.287 25.2381L158.354 25.1753L154.942 21.52ZM155.822 20.32L151.35 18.0839L151.293 18.1985L151.242 18.3159L155.822 20.32ZM156.542 19.16L160.505 22.2086L160.559 22.1383L160.611 22.0662L156.542 19.16ZM156.542 27.92L152.579 30.9685L152.639 31.0459L152.701 31.1209L156.542 27.92ZM155.822 26.8L151.242 28.8041L151.319 28.9818L151.411 29.1529L155.822 26.8ZM154.942 25.68L151.668 29.4584L151.742 29.5229L151.819 29.5843L154.942 25.68ZM150.142 25.16V20.16H145.142V25.16H150.142ZM150.742 33.96L146.502 36.61L146.541 36.6723L146.582 36.7335L150.742 33.96ZM157.542 34.12L154.179 30.4203L157.542 34.12ZM158.942 32.36L154.58 29.917L154.563 29.9477L154.546 29.9786L158.942 32.36ZM160.302 30.56L163.838 34.0955L160.302 30.56ZM163.142 30.2L158.753 32.5943L158.886 32.839L159.046 33.0673L163.142 30.2ZM163.342 31.08L158.41 30.258L158.407 30.2754L158.405 30.2928L163.342 31.08ZM162.462 36.6L157.525 35.8128L157.524 35.8202L162.462 36.6ZM162.022 37.68L158.487 34.1445L158.487 34.1445L162.022 37.68ZM141.342 33C141.588 33 142.703 33.0333 143.808 33.9615C145.08 35.0299 145.342 36.4183 145.342 37.16H135.342C135.342 38.4617 135.771 40.2701 137.376 41.6185C138.815 42.8267 140.43 43 141.342 43V33ZM145.342 37.16V37H135.342V37.16H145.342ZM145.342 37C145.342 37.5348 145.243 37.9383 145.177 38.155C145.109 38.3812 145.039 38.5266 145.014 38.5761C144.971 38.6631 144.989 38.6067 145.16 38.3761L137.125 32.4239C136.762 32.9133 136.38 33.4836 136.07 34.1039C135.806 34.6322 135.342 35.6797 135.342 37H145.342ZM145.142 38.4C146.159 37.045 146.982 35.2843 146.982 33.2H136.982C136.982 32.8976 137.043 32.6578 137.101 32.5065C137.155 32.3655 137.194 32.3309 137.142 32.4L145.142 38.4ZM146.982 33.2V14.4H136.982V33.2H146.982ZM146.982 14.4C146.982 12.3004 146.147 10.5302 145.089 9.17029L137.196 15.3097C137.23 15.3544 137.176 15.2966 137.112 15.1322C137.044 14.9569 136.982 14.7039 136.982 14.4H146.982ZM145.211 9.33381C145.033 9.08493 145.003 9.01046 145.036 9.07788C145.055 9.11709 145.119 9.25235 145.183 9.46732C145.244 9.67098 145.342 10.0683 145.342 10.6H135.342C135.342 11.9058 135.797 12.9473 136.049 13.4621C136.348 14.0762 136.718 14.6484 137.074 15.1462L145.211 9.33381ZM145.342 10.6V10.44H135.342V10.6H145.342ZM145.342 10.44C145.342 11.1817 145.08 12.5701 143.808 13.6385C142.703 14.5667 141.588 14.6 141.342 14.6V4.6C140.43 4.6 138.815 4.77332 137.376 5.98148C135.771 7.3299 135.342 9.13834 135.342 10.44H145.342ZM141.342 14.6H159.982V4.6H141.342V14.6ZM159.982 14.6C159.892 14.6 158.636 14.6052 157.487 13.4555L164.558 6.38447C162.982 4.80812 161.032 4.6 159.982 4.6V14.6ZM157.73 13.6829C157.152 13.1774 156.856 12.6432 156.716 12.3237C156.576 12.0065 156.537 11.7843 156.53 11.742L166.394 10.098C166.248 9.21983 165.833 7.48528 164.315 6.15711L157.73 13.6829ZM156.541 11.8015L157.501 17.1615L167.344 15.3985L166.384 10.0385L156.541 11.8015ZM157.473 16.9871C157.423 16.639 157.408 16.1269 157.564 15.5279C157.726 14.907 158.035 14.3401 158.445 13.8782L165.919 20.5218C167.284 18.9865 167.593 17.1208 167.372 15.5729L157.473 16.9871ZM158.647 13.6645C159.583 12.7279 160.683 12.52 161.302 12.52V22.52C162.668 22.52 164.355 22.0987 165.718 20.7355L158.647 13.6645ZM161.302 12.52H161.062V22.52H161.302V12.52ZM161.062 12.52C162.12 12.52 162.702 13.0211 162.737 13.0523L156.028 20.4677C157.182 21.5122 158.885 22.52 161.062 22.52V12.52ZM162.737 13.0523C162.422 12.7674 162.162 12.476 161.946 12.1791L153.859 18.0609C154.496 18.9374 155.223 19.7393 156.028 20.4677L162.737 13.0523ZM162.09 12.3887C161.364 11.2744 160.461 10.3235 159.446 9.51977L153.239 17.3602C153.504 17.5699 153.641 17.739 153.714 17.8513L162.09 12.3887ZM159.446 9.51977C158.126 8.47526 156.411 7.68 154.382 7.68V17.68C154.066 17.68 153.785 17.6171 153.565 17.5318C153.355 17.4506 153.248 17.3676 153.239 17.3602L159.446 9.51977ZM154.382 7.68H152.142V17.68H154.382V7.68ZM152.142 7.68C150.654 7.68 148.632 8.07736 147.038 9.73446C145.48 11.355 145.142 13.3439 145.142 14.76H155.142C155.142 14.7894 155.138 15.7383 154.247 16.6655C153.32 17.6293 152.297 17.68 152.142 17.68V7.68ZM145.142 14.76V22.04H155.142V14.76H145.142ZM150.142 27.04H153.542V17.04H150.142V27.04ZM153.542 27.04C155.269 27.04 156.9 26.4395 158.217 25.2984L151.668 17.7416C151.891 17.5476 152.188 17.3577 152.551 17.2229C152.914 17.0883 153.257 17.04 153.542 17.04V27.04ZM158.354 25.1753C159.166 24.4172 159.9 23.4745 160.403 22.3241L151.242 18.3159C151.372 18.0188 151.519 17.8761 151.531 17.8647L158.354 25.1753ZM160.294 22.5561C160.377 22.3903 160.451 22.2796 160.505 22.2086L152.579 16.1114C152.101 16.7337 151.694 17.3963 151.35 18.0839L160.294 22.5561ZM160.611 22.0662C160.539 22.1675 160.289 22.5005 159.81 22.8362C159.291 23.1994 158.443 23.6 157.342 23.6V13.6C154.582 13.6 153.013 15.499 152.474 16.2538L160.611 22.0662ZM157.342 23.6H157.742V13.6H157.342V23.6ZM157.742 23.6C157.001 23.6 155.612 23.3379 154.544 22.066C153.616 20.961 153.582 19.8454 153.582 19.6H163.582C163.582 18.6879 163.409 17.0723 162.201 15.634C160.852 14.0288 159.044 13.6 157.742 13.6V23.6ZM153.582 19.6V27.4H163.582V19.6H153.582ZM153.582 27.4C153.582 27.1546 153.616 26.039 154.544 24.934C155.612 23.6621 157.001 23.4 157.742 23.4V33.4C159.044 33.4 160.852 32.9712 162.201 31.366C163.409 29.9277 163.582 28.3121 163.582 27.4H153.582ZM157.742 23.4H157.342V33.4H157.742V23.4ZM157.342 23.4C159.23 23.4 160.235 24.5404 160.383 24.7191L152.701 31.1209C153.383 31.9396 154.922 33.4 157.342 33.4V23.4ZM160.505 24.8715C160.413 24.7517 160.322 24.6121 160.234 24.4471L151.411 29.1529C151.749 29.7879 152.138 30.395 152.579 30.9685L160.505 24.8715ZM160.403 24.7959C159.86 23.5551 159.034 22.5501 158.066 21.7757L151.819 29.5843C151.651 29.4499 151.411 29.1916 151.242 28.8041L160.403 24.7959ZM158.217 21.9016C156.9 20.7605 155.269 20.16 153.542 20.16V30.16C153.257 30.16 152.914 30.1117 152.551 29.9771C152.188 29.8423 151.891 29.6524 151.668 29.4584L158.217 21.9016ZM153.542 20.16H150.142V30.16H153.542V20.16ZM145.142 25.16V31.72H155.142V25.16H145.142ZM145.142 31.72C145.142 33.3847 145.543 35.0751 146.502 36.61L154.982 31.31C155.051 31.4205 155.097 31.5325 155.122 31.6263C155.146 31.7161 155.142 31.7547 155.142 31.72H145.142ZM146.582 36.7335C148.142 39.0731 150.586 39.92 152.782 39.92V29.92C152.878 29.92 153.234 29.9361 153.701 30.1559C154.205 30.3931 154.623 30.7676 154.903 31.1865L146.582 36.7335ZM152.782 39.92H155.662V29.92H152.782V39.92ZM155.662 39.92C157.801 39.92 159.583 39.0222 160.906 37.8197L154.179 30.4203C154.234 30.3706 154.395 30.2381 154.675 30.1192C154.967 29.9949 155.308 29.92 155.662 29.92V39.92ZM160.906 37.8197C161.871 36.9419 162.701 35.9181 163.339 34.7414L154.546 29.9786C154.49 30.0819 154.387 30.2314 154.179 30.4203L160.906 37.8197ZM163.305 34.803C163.457 34.5315 163.633 34.3001 163.838 34.0955L156.767 27.0245C155.905 27.8865 155.174 28.8552 154.58 29.917L163.305 34.803ZM163.838 34.0955C163.786 34.1475 163.604 34.3163 163.272 34.4743C162.92 34.642 162.475 34.76 161.982 34.76V24.76C159.72 24.76 157.958 25.8337 156.767 27.0245L163.838 34.0955ZM161.982 34.76H162.382V24.76H161.982V34.76ZM162.382 34.76C161.839 34.76 161.091 34.6396 160.327 34.1971C159.553 33.749 159.048 33.1362 158.753 32.5943L167.532 27.8057C167.076 26.9705 166.365 26.1377 165.338 25.5429C164.32 24.9537 163.272 24.76 162.382 24.76V34.76ZM159.046 33.0673C158.799 32.7141 158.578 32.263 158.457 31.7281C158.335 31.1929 158.339 30.6882 158.41 30.258L168.274 31.902C168.544 30.2853 168.173 28.6681 167.238 27.3327L159.046 33.0673ZM158.405 30.2928L157.525 35.8128L167.4 37.3872L168.28 31.8672L158.405 30.2928ZM157.524 35.8202C157.526 35.8069 157.553 35.6315 157.662 35.3635C157.771 35.0967 158.008 34.6237 158.487 34.1445L165.558 41.2155C166.881 39.8924 167.26 38.2731 167.401 37.3798L157.524 35.8202ZM158.487 34.1445C159.636 32.9948 160.892 33 160.982 33V43C162.032 43 163.982 42.7919 165.558 41.2155L158.487 34.1445ZM160.982 33H141.342V43H160.982V33ZM172.06 35.4L175.936 38.5584L175.964 38.524L175.991 38.4891L172.06 35.4ZM172.94 12.96H177.94V7.96H172.94V12.96ZM169.94 13.76L173.383 17.385L173.388 17.3807L169.94 13.76ZM168.66 15.44L164.227 13.1272L164.186 13.2043L164.149 13.2827L168.66 15.44ZM167.58 17.16L171.404 20.3807L171.445 20.3326L171.484 20.2835L167.58 17.16ZM164.62 17.6L160.882 20.9218L160.98 21.0316L161.084 21.1355L164.62 17.6ZM164.38 16.68L169.329 17.3871L169.331 17.3775L169.332 17.3678L164.38 16.68ZM165.18 10.92L170.132 11.6078L170.138 11.5648L170.143 11.5217L165.18 10.92ZM188.86 10.92L183.896 11.5217L183.901 11.5648L183.907 11.6078L188.86 10.92ZM189.66 16.68L184.707 17.3678L184.708 17.3775L184.71 17.3871L189.66 16.68ZM189.42 17.6L192.955 21.1355L193.059 21.0316L193.157 20.9218L189.42 17.6ZM186.46 17.16L182.555 20.2835L182.594 20.3326L182.635 20.3807L186.46 17.16ZM185.34 15.44L180.829 17.5973L180.866 17.6757L180.907 17.7528L185.34 15.44ZM184.06 13.76L180.524 17.2955L180.612 17.3839L180.705 17.4677L184.06 13.76ZM181.1 12.96V7.96H176.1V12.96H181.1ZM181.98 35.4L178.048 38.4891L178.109 38.567L178.173 38.6423L181.98 35.4ZM172.14 33C172.438 33 173.596 33.051 174.712 34.0271C175.955 35.1149 176.18 36.4828 176.18 37.16H166.18C166.18 38.3972 166.564 40.1851 168.127 41.5529C169.563 42.809 171.201 43 172.14 43V33ZM176.18 37.16V37H166.18V37.16H176.18ZM176.18 37C176.18 37.5977 176.058 38.0474 175.978 38.2861C175.895 38.5353 175.811 38.6951 175.781 38.7496C175.727 38.8464 175.745 38.7927 175.936 38.5584L168.183 32.2416C167.788 32.7273 167.365 33.3002 167.018 33.9304C166.731 34.4534 166.18 35.5667 166.18 37H176.18ZM175.991 38.4891C177.049 37.1431 177.94 35.3524 177.94 33.2H167.94C167.94 32.4876 168.244 32.1636 168.128 32.3109L175.991 38.4891ZM177.94 33.2V12.96H167.94V33.2H177.94ZM172.94 7.96H171.74V17.96H172.94V7.96ZM171.74 7.96C169.558 7.96 167.776 8.91608 166.491 10.1393L173.388 17.3807C173.325 17.4404 173.147 17.5925 172.84 17.7291C172.518 17.8723 172.138 17.96 171.74 17.96V7.96ZM166.496 10.135C165.588 10.9973 164.817 11.9947 164.227 13.1272L173.092 17.7528C173.142 17.6586 173.224 17.536 173.383 17.385L166.496 10.135ZM164.149 13.2827C164.021 13.5503 163.865 13.7997 163.675 14.0365L171.484 20.2835C172.148 19.4536 172.712 18.5563 173.17 17.5973L164.149 13.2827ZM163.755 13.9393C163.829 13.8519 164.659 12.92 166.26 12.92V22.92C168.767 22.92 170.477 21.4814 171.404 20.3807L163.755 13.9393ZM166.26 12.92H165.5V22.92H166.26V12.92ZM165.5 12.92C166.119 12.92 167.219 13.1279 168.155 14.0645L161.084 21.1355C162.447 22.4987 164.134 22.92 165.5 22.92V12.92ZM168.357 14.2782C168.767 14.7401 169.076 15.307 169.238 15.9279C169.394 16.5269 169.379 17.039 169.329 17.3871L159.43 15.9729C159.209 17.5209 159.518 19.3865 160.882 20.9218L168.357 14.2782ZM169.332 17.3678L170.132 11.6078L160.227 10.2322L159.427 15.9922L169.332 17.3678ZM170.143 11.5217C170.101 11.8725 169.889 12.8304 168.958 13.6615C168.021 14.4971 167.034 14.6 166.66 14.6V4.6C165.405 4.6 163.732 4.92293 162.301 6.19852C160.876 7.46955 160.365 9.08745 160.216 10.3183L170.143 11.5217ZM166.66 14.6H187.38V4.6H166.66V14.6ZM187.38 14.6C187.005 14.6 186.018 14.4971 185.081 13.6615C184.15 12.8304 183.938 11.8725 183.896 11.5217L193.823 10.3183C193.674 9.08745 193.163 7.46955 191.738 6.19852C190.307 4.92293 188.634 4.6 187.38 4.6V14.6ZM183.907 11.6078L184.707 17.3678L194.612 15.9922L193.812 10.2322L183.907 11.6078ZM184.71 17.3871C184.66 17.039 184.645 16.5269 184.801 15.9279C184.963 15.307 185.272 14.7401 185.682 14.2782L193.157 20.9218C194.521 19.3865 194.83 17.5209 194.609 15.9729L184.71 17.3871ZM185.884 14.0645C186.821 13.1279 187.92 12.92 188.54 12.92V22.92C189.905 22.92 191.592 22.4987 192.955 21.1355L185.884 14.0645ZM188.54 12.92H187.78V22.92H188.54V12.92ZM187.78 12.92C189.38 12.92 190.21 13.8519 190.284 13.9393L182.635 20.3807C183.562 21.4814 185.272 22.92 187.78 22.92V12.92ZM190.364 14.0365C190.142 13.7589 189.945 13.4575 189.772 13.1272L180.907 17.7528C181.374 18.6491 181.924 19.4944 182.555 20.2835L190.364 14.0365ZM189.85 13.2827C189.247 12.0205 188.403 10.9472 187.414 10.0523L180.705 17.4677C180.773 17.5296 180.808 17.5716 180.822 17.5902C180.836 17.6079 180.835 17.6098 180.829 17.5973L189.85 13.2827ZM187.595 10.2245C186.304 8.93363 184.5 7.96 182.3 7.96V17.96C181.901 17.96 181.502 17.8717 181.151 17.7118C180.814 17.5587 180.61 17.3819 180.524 17.2955L187.595 10.2245ZM182.3 7.96H181.1V17.96H182.3V7.96ZM176.1 12.96V33.2H186.1V12.96H176.1ZM176.1 33.2C176.1 35.3524 176.99 37.1431 178.048 38.4891L185.911 32.3109C185.795 32.1636 186.1 32.4876 186.1 33.2H176.1ZM178.173 38.6423C178.375 38.879 178.393 38.9326 178.335 38.8324C178.303 38.7761 178.211 38.6101 178.121 38.3504C178.034 38.1016 177.9 37.6291 177.9 37H187.9C187.9 35.5105 187.302 34.3659 187.004 33.8476C186.64 33.2141 186.197 32.641 185.786 32.1577L178.173 38.6423ZM177.9 37V37.16H187.9V37H177.9ZM177.9 37.16C177.9 36.4183 178.162 35.0299 179.434 33.9615C180.539 33.0333 181.654 33 181.9 33V43C182.812 43 184.427 42.8267 185.865 41.6185C187.471 40.2701 187.9 38.4617 187.9 37.16H177.9ZM181.9 33H172.14V43H181.9V33ZM196.929 36.28L194.168 40.4482L196.929 36.28ZM192.049 30.76L196.532 28.5451L192.049 30.76ZM194.009 13.28L190.313 9.91299L190.311 9.91479L194.009 13.28ZM211.969 11.44L209.297 15.6663L209.326 15.6841L209.354 15.7016L211.969 11.44ZM214.489 19.52L217.952 23.1269L217.989 23.0916L218.025 23.0555L214.489 19.52ZM209.009 19.64L206.077 23.6897L206.109 23.7132L206.142 23.7362L209.009 19.64ZM207.089 17.64L202.802 20.2125L202.853 20.2973L202.907 20.3801L207.089 17.64ZM205.689 15.28L201.277 17.6329L201.325 17.7218L201.376 17.8086L205.689 15.28ZM204.129 13.24L200.758 16.9324V16.9324L204.129 13.24ZM199.409 14L203.471 16.916L203.488 16.8918L203.505 16.8673L199.409 14ZM200.849 27.52L196.79 30.4391L196.808 30.465L196.827 30.4907L200.849 27.52ZM208.209 30.96L208.87 35.9161L209.001 35.8987L209.131 35.8744L208.209 30.96ZM209.409 30.56L211.645 35.0321L211.704 35.0027L211.762 34.9718L209.409 30.56ZM210.369 30.08L212.4 34.6491L212.603 34.5588L212.797 34.4508L210.369 30.08ZM211.209 29.4L207.818 25.726L207.744 25.7938L207.674 25.8645L211.209 29.4ZM211.889 28.76L208.766 24.8557L208.549 25.0287L208.354 25.2245L211.889 28.76ZM212.529 28.04L208.733 24.786L208.664 24.867L208.598 24.9509L212.529 28.04ZM213.049 27.44L216.585 30.9755L216.745 30.8152L216.89 30.6409L213.049 27.44ZM214.529 26.96L215.845 22.1362V22.1362L214.529 26.96ZM212.529 35.4L208.922 31.9373L212.529 35.4ZM204.129 33.4C202.401 33.4 200.97 32.959 199.691 32.1118L194.168 40.4482C197.156 42.4277 200.524 43.4 204.129 43.4V33.4ZM199.691 32.1118C198.284 31.1799 197.256 30.01 196.532 28.5451L187.567 32.9749C189.083 36.0433 191.308 38.5535 194.168 40.4482L199.691 32.1118ZM196.532 28.5451C195.767 26.9978 195.369 25.3067 195.369 23.4H185.369C185.369 26.7733 186.091 29.9889 187.567 32.9749L196.532 28.5451ZM195.369 23.4C195.369 20.3887 196.23 18.2689 197.707 16.6452L190.311 9.91479C186.935 13.6244 185.369 18.2513 185.369 23.4H195.369ZM197.706 16.647C199.113 15.1023 200.942 14.24 203.689 14.24V4.24C198.436 4.24 193.812 6.07099 190.313 9.91299L197.706 16.647ZM203.689 14.24C206.103 14.24 207.902 14.7841 209.297 15.6663L214.641 7.21371C211.396 5.16253 207.675 4.24 203.689 4.24V14.24ZM209.354 15.7016C210.053 16.1305 210.316 16.4581 210.402 16.5922C210.461 16.6829 210.489 16.7517 210.489 16.92H220.489C220.489 12.5294 217.996 9.27187 214.584 7.17839L209.354 15.7016ZM210.489 16.92C210.489 16.9298 210.489 16.7931 210.572 16.5751C210.661 16.3452 210.8 16.138 210.954 15.9845L218.025 23.0555C219.755 21.325 220.489 19.1229 220.489 16.92H210.489ZM211.027 15.9131C211.24 15.7077 211.474 15.581 211.657 15.5175C211.82 15.4606 211.868 15.48 211.729 15.48V25.48C213.83 25.48 216.121 24.8843 217.952 23.1269L211.027 15.9131ZM211.729 15.48C211.707 15.48 211.701 15.4785 211.711 15.4798C211.72 15.4812 211.739 15.4848 211.765 15.4926C211.79 15.5005 211.815 15.5105 211.837 15.5214C211.859 15.5323 211.873 15.5411 211.877 15.5438L206.142 23.7362C207.815 24.9076 209.731 25.48 211.729 25.48V15.48ZM211.942 15.5903C211.645 15.3753 211.434 15.1476 211.272 14.8999L202.907 20.3801C203.758 21.6791 204.827 22.7847 206.077 23.6897L211.942 15.5903ZM211.377 15.0675C210.905 14.2815 210.447 13.5095 210.003 12.7514L201.376 17.8086C201.838 18.5972 202.313 19.3985 202.802 20.2125L211.377 15.0675ZM210.101 12.9271C209.431 11.6706 208.571 10.5252 207.501 9.54757L200.758 16.9324C200.914 17.0748 201.094 17.2894 201.277 17.6329L210.101 12.9271ZM207.501 9.54757C206.078 8.24844 204.227 7.4 202.089 7.4V17.4C201.82 17.4 201.529 17.3459 201.255 17.2334C200.991 17.1243 200.827 16.9956 200.758 16.9324L207.501 9.54757ZM202.089 7.4C199.005 7.4 196.731 9.10748 195.313 11.1327L203.505 16.8673C203.573 16.7711 203.494 16.9191 203.202 17.0931C202.874 17.2889 202.472 17.4 202.089 17.4V7.4ZM195.348 11.084C193.769 13.2827 193.289 15.9053 193.289 18.36H203.289C203.289 17.0814 203.556 16.7973 203.471 16.916L195.348 11.084ZM193.289 18.36C193.289 22.8497 194.321 27.006 196.79 30.4391L204.909 24.6009C203.964 23.2873 203.289 21.3369 203.289 18.36H193.289ZM196.827 30.4907C199.22 33.7296 202.586 36.04 206.889 36.04V26.04C206.606 26.04 205.945 26.0037 204.871 24.5493L196.827 30.4907ZM206.889 36.04C207.55 36.04 208.215 36.0035 208.87 35.9161L207.548 26.0039C207.404 26.0231 207.188 26.04 206.889 26.04V36.04ZM209.131 35.8744C209.996 35.7122 210.84 35.4348 211.645 35.0321L207.173 26.0879C207.2 26.0743 207.226 26.064 207.248 26.0566C207.27 26.0492 207.284 26.0463 207.288 26.0456L209.131 35.8744ZM211.762 34.9718C212.12 34.7807 212.32 34.6847 212.4 34.6491L208.339 25.5109C207.939 25.6886 207.498 25.9126 207.056 26.1482L211.762 34.9718ZM212.797 34.4508C213.621 33.9935 214.279 33.401 214.745 32.9355L207.674 25.8645C207.608 25.9306 207.588 25.9441 207.613 25.9238C207.627 25.9124 207.66 25.8866 207.711 25.8515C207.761 25.8168 207.838 25.7664 207.941 25.7092L212.797 34.4508ZM214.601 33.074C214.933 32.7674 215.235 32.4854 215.425 32.2955L208.354 25.2245C208.357 25.2216 208.319 25.2587 208.212 25.359C208.115 25.4505 207.985 25.572 207.818 25.726L214.601 33.074ZM215.013 32.6643C215.664 32.1436 216.209 31.4501 216.461 31.1291L208.598 24.9509C208.545 25.0181 208.502 25.0707 208.469 25.1106C208.436 25.1512 208.417 25.1724 208.412 25.1782C208.405 25.186 208.425 25.1627 208.469 25.1195C208.491 25.0968 208.526 25.063 208.572 25.0213C208.616 24.9805 208.682 24.9229 208.766 24.8557L215.013 32.6643ZM216.326 31.294C216.484 31.1094 216.6 30.9743 216.678 30.8847C216.717 30.8389 216.74 30.8126 216.751 30.8006C216.757 30.794 216.752 30.7997 216.74 30.8127C216.734 30.8192 216.721 30.8341 216.702 30.8541C216.689 30.8676 216.645 30.9153 216.585 30.9755L209.514 23.9045C209.308 24.1103 208.932 24.5537 208.733 24.786L216.326 31.294ZM216.89 30.6409C216.611 30.9762 216.081 31.4503 215.262 31.7161C214.432 31.9852 213.694 31.9148 213.214 31.7838L215.845 22.1362C214.778 21.8452 213.5 21.7748 212.177 22.2039C210.864 22.6297 209.888 23.4238 209.208 24.2391L216.89 30.6409ZM213.214 31.7838C212.623 31.6227 211.762 31.1997 211.112 30.2837C210.495 29.4141 210.409 28.5794 210.409 28.2H220.409C220.409 27.1539 220.177 25.7792 219.267 24.4963C218.323 23.167 217.022 22.4573 215.845 22.1362L213.214 31.7838ZM210.409 28.2C210.409 29.7236 209.939 30.8788 208.922 31.9373L216.136 38.8627C218.96 35.9212 220.409 32.2764 220.409 28.2H210.409ZM208.922 31.9373C208.224 32.6643 206.912 33.4 204.129 33.4V43.4C208.707 43.4 212.994 42.1357 216.136 38.8627L208.922 31.9373ZM218.525 35.4L214.525 32.4L214.516 32.4119L214.507 32.4239L218.525 35.4ZM218.525 12.24L214.456 15.1462L214.516 15.2292L214.578 15.3097L218.525 12.24ZM228.525 12.24L224.662 9.0663L224.655 9.07395L224.649 9.08163L228.525 12.24ZM227.645 22H222.645V27H227.645V22ZM236.765 22V27H241.739L241.765 22.0263L236.765 22ZM236.805 14.4L241.805 14.4263L241.805 14.4132V14.4H236.805ZM236.005 12.24L231.936 15.1462L231.962 15.1814L231.987 15.2161L236.005 12.24ZM245.965 12.24L249.771 15.4823L249.8 15.4483L249.829 15.4137L245.965 12.24ZM245.965 35.4L242.102 38.5737L242.13 38.6083L242.159 38.6423L245.965 35.4ZM236.005 35.4L240.023 38.3761L240.049 38.3414L240.074 38.3062L236.005 35.4ZM236.805 33.2H241.805V33.1871L241.805 33.1742L236.805 33.2ZM236.765 25.44L241.765 25.4142L241.739 20.44H236.765V25.44ZM227.645 25.44V20.44H222.671L222.645 25.4142L227.645 25.44ZM227.605 33.2L222.605 33.1742L222.605 33.1871V33.2H227.605ZM228.525 35.4L224.662 38.5737L224.69 38.6083L224.719 38.6423L228.525 35.4ZM218.725 33C218.971 33 220.086 33.0333 221.191 33.9615C222.463 35.0299 222.725 36.4183 222.725 37.16H212.725C212.725 38.4617 213.154 40.2701 214.759 41.6185C216.197 42.8267 217.813 43 218.725 43V33ZM222.725 37.16V37H212.725V37.16H222.725ZM222.725 37C222.725 37.5348 222.626 37.9383 222.56 38.155C222.492 38.3812 222.422 38.5266 222.397 38.5761C222.354 38.6631 222.372 38.6067 222.543 38.3761L214.507 32.4239C214.145 32.9133 213.763 33.4836 213.453 34.1039C213.189 34.6322 212.725 35.6797 212.725 37H222.725ZM222.525 38.4C223.541 37.045 224.365 35.2843 224.365 33.2H214.365C214.365 32.8976 214.426 32.6578 214.484 32.5065C214.538 32.3655 214.577 32.3309 214.525 32.4L222.525 38.4ZM224.365 33.2V14.4H214.365V33.2H224.365ZM224.365 14.4C224.365 12.3004 223.53 10.5302 222.472 9.17029L214.578 15.3097C214.613 15.3544 214.559 15.2966 214.495 15.1322C214.427 14.9569 214.365 14.7039 214.365 14.4H224.365ZM222.594 9.33381C222.416 9.08493 222.386 9.01046 222.419 9.07788C222.438 9.11709 222.502 9.25235 222.566 9.46732C222.627 9.67098 222.725 10.0683 222.725 10.6H212.725C212.725 11.9058 213.18 12.9473 213.431 13.4621C213.731 14.0762 214.101 14.6484 214.456 15.1462L222.594 9.33381ZM222.725 10.6V10.44H212.725V10.6H222.725ZM222.725 10.44C222.725 11.1817 222.463 12.5701 221.191 13.6385C220.086 14.5667 218.971 14.6 218.725 14.6V4.6C217.813 4.6 216.197 4.77332 214.759 5.98148C213.154 7.3299 212.725 9.13834 212.725 10.44H222.725ZM218.725 14.6H228.445V4.6H218.725V14.6ZM228.445 14.6C228.2 14.6 227.084 14.5667 225.979 13.6385C224.707 12.5701 224.445 11.1817 224.445 10.44H234.445C234.445 9.13834 234.016 7.3299 232.411 5.98148C230.973 4.77332 229.357 4.6 228.445 4.6V14.6ZM224.445 10.44V10.6H234.445V10.44H224.445ZM224.445 10.6C224.445 9.97463 224.578 9.5088 224.659 9.27407C224.744 9.02601 224.828 8.87016 224.854 8.82374C224.9 8.74217 224.87 8.81251 224.662 9.0663L232.389 15.4137C232.794 14.9208 233.223 14.3445 233.576 13.7163C233.859 13.2112 234.445 12.0725 234.445 10.6H224.445ZM224.649 9.08163C223.549 10.4312 222.645 12.2309 222.645 14.4H232.645C232.645 14.7369 232.573 15.0157 232.496 15.2065C232.423 15.3846 232.362 15.4465 232.401 15.3984L224.649 9.08163ZM222.645 14.4V22H232.645V14.4H222.645ZM227.645 27H236.765V17H227.645V27ZM241.765 22.0263L241.805 14.4263L231.805 14.3737L231.765 21.9737L241.765 22.0263ZM241.805 14.4C241.805 12.3699 241.036 10.6313 240.023 9.26386L231.987 15.2161C232.019 15.2584 231.972 15.206 231.916 15.0566C231.858 14.8979 231.805 14.6711 231.805 14.4H241.805ZM240.074 9.33381C239.896 9.08493 239.866 9.01046 239.899 9.07788C239.918 9.11709 239.982 9.25235 240.046 9.46732C240.107 9.67098 240.205 10.0683 240.205 10.6H230.205C230.205 11.9058 230.66 12.9473 230.911 13.4621C231.211 14.0762 231.581 14.6484 231.936 15.1462L240.074 9.33381ZM240.205 10.6V10.44H230.205V10.6H240.205ZM240.205 10.44C240.205 11.1172 239.981 12.4851 238.738 13.5729C237.622 14.549 236.464 14.6 236.165 14.6V4.6C235.226 4.6 233.588 4.79096 232.153 6.04712C230.589 7.41487 230.205 9.20283 230.205 10.44H240.205ZM236.165 14.6H245.885V4.6H236.165V14.6ZM245.885 14.6C245.64 14.6 244.524 14.5667 243.419 13.6385C242.147 12.5701 241.885 11.1817 241.885 10.44H251.885C251.885 9.13834 251.456 7.32989 249.851 5.98147C248.413 4.77332 246.797 4.6 245.885 4.6V14.6ZM241.885 10.44V10.6H251.885V10.44H241.885ZM241.885 10.6C241.885 9.97463 242.018 9.5088 242.099 9.27407C242.184 9.02601 242.268 8.87016 242.294 8.82374C242.34 8.74217 242.31 8.81251 242.102 9.0663L249.829 15.4137C250.234 14.9208 250.663 14.3445 251.016 13.7163C251.299 13.2112 251.885 12.0725 251.885 10.6H241.885ZM242.159 8.99767C241.02 10.3344 240.045 12.1615 240.045 14.4H250.045C250.045 14.77 249.963 15.0741 249.875 15.2793C249.794 15.4699 249.727 15.5348 249.771 15.4823L242.159 8.99767ZM240.045 14.4V33.2H250.045V14.4H240.045ZM240.045 33.2C240.045 35.4204 241.005 37.2392 242.102 38.5737L249.829 32.2263C249.698 32.0675 250.045 32.4196 250.045 33.2H240.045ZM242.159 38.6423C242.361 38.879 242.378 38.9326 242.321 38.8324C242.288 38.7761 242.197 38.6101 242.106 38.3504C242.019 38.1016 241.885 37.6291 241.885 37H251.885C251.885 35.5105 251.288 34.3659 250.99 33.8476C250.625 33.2141 250.183 32.641 249.771 32.1577L242.159 38.6423ZM241.885 37V37.16H251.885V37H241.885ZM241.885 37.16C241.885 36.4183 242.147 35.0299 243.419 33.9615C244.524 33.0333 245.64 33 245.885 33V43C246.797 43 248.413 42.8267 249.851 41.6185C251.456 40.2701 251.885 38.4617 251.885 37.16H241.885ZM245.885 33H236.165V43H245.885V33ZM236.165 33C236.464 33 237.622 33.051 238.738 34.0271C239.981 35.1149 240.205 36.4828 240.205 37.16H230.205C230.205 38.3972 230.589 40.1851 232.153 41.5529C233.588 42.809 235.226 43 236.165 43V33ZM240.205 37.16V37H230.205V37.16H240.205ZM240.205 37C240.205 37.5348 240.106 37.9383 240.04 38.155C239.972 38.3812 239.902 38.5266 239.877 38.5761C239.834 38.6631 239.852 38.6067 240.023 38.3761L231.987 32.4239C231.625 32.9133 231.243 33.4836 230.933 34.1039C230.669 34.6322 230.205 35.6797 230.205 37H240.205ZM240.074 38.3062C241.046 36.9449 241.805 35.2163 241.805 33.2H231.805C231.805 32.9303 231.857 32.7163 231.906 32.5813C231.952 32.4551 231.985 32.4263 231.936 32.4938L240.074 38.3062ZM241.805 33.1742L241.765 25.4142L231.765 25.4658L231.805 33.2258L241.805 33.1742ZM236.765 20.44H227.645V30.44H236.765V20.44ZM222.645 25.4142L222.605 33.1742L232.605 33.2258L232.645 25.4658L222.645 25.4142ZM222.605 33.2C222.605 35.4204 223.565 37.2392 224.662 38.5737L232.389 32.2263C232.258 32.0675 232.605 32.4196 232.605 33.2H222.605ZM224.719 38.6423C224.921 38.879 224.938 38.9326 224.881 38.8324C224.848 38.7761 224.757 38.6101 224.666 38.3504C224.579 38.1016 224.445 37.6291 224.445 37H234.445C234.445 35.5105 233.848 34.3659 233.55 33.8476C233.185 33.2141 232.743 32.641 232.331 32.1577L224.719 38.6423ZM224.445 37V37.16H234.445V37H224.445ZM224.445 37.16C224.445 36.4183 224.707 35.0299 225.979 33.9615C227.084 33.0333 228.2 33 228.445 33V43C229.357 43 230.973 42.8267 232.411 41.6185C234.016 40.2701 234.445 38.4617 234.445 37.16H224.445ZM228.445 33H218.725V43H228.445V33ZM274.916 33.2L270.285 35.0851L270.303 35.1275L270.321 35.1696L274.916 33.2ZM276.356 35.36L272.682 38.7514L272.717 38.7888L272.752 38.8255L276.356 35.36ZM264.076 36.16L260.377 32.7966L260.289 32.893L260.207 32.9938L264.076 36.16ZM264.876 35.4L268 39.3043L268.021 39.2872L268.043 39.2698L264.876 35.4ZM265.556 34.48L270.152 36.4496L270.176 36.3936L270.199 36.3369L265.556 34.48ZM265.556 33.2L260.834 34.8426L260.838 34.8534L260.841 34.8641L265.556 33.2ZM264.916 31.36L269.639 29.7174L268.471 26.36H264.916V31.36ZM255.556 31.36V26.36H252.002L250.834 29.7174L255.556 31.36ZM254.916 33.2L259.631 34.8641L259.635 34.8534L259.639 34.8426L254.916 33.2ZM254.916 34.48L250.274 36.337L250.297 36.3936L250.321 36.4496L254.916 34.48ZM255.556 35.4L252.212 39.1165L252.405 39.2906L252.616 39.4437L255.556 35.4ZM256.356 36.16L252.487 39.3262L252.569 39.427L252.657 39.5234L256.356 36.16ZM249.236 35.4L245.701 31.8645L249.236 35.4ZM250.676 33.2L246.012 31.399L245.997 31.4387L245.982 31.4787L250.676 33.2ZM257.796 14.76L262.461 16.561L262.47 16.5383L262.478 16.5156L257.796 14.76ZM257.196 12.36L252.983 15.0519L253.009 15.093L253.036 15.1335L257.196 12.36ZM266.156 11.68L270.787 9.79488L270.775 9.76325L270.761 9.7318L266.156 11.68ZM256.756 28L252.046 26.3242L249.671 33H256.756V28ZM263.796 28V33H270.777L268.53 26.3908L263.796 28ZM260.356 17.88L265.09 16.2708L260.464 2.65988L255.646 16.2042L260.356 17.88ZM270.321 35.1696C270.898 36.5161 271.718 37.7063 272.682 38.7514L280.03 31.9686C279.715 31.6271 279.575 31.3773 279.512 31.2304L270.321 35.1696ZM272.752 38.8255C272.946 39.0267 272.929 39.0438 272.837 38.893C272.786 38.8092 272.678 38.6192 272.578 38.3331C272.477 38.048 272.356 37.5887 272.356 37H282.356C282.356 35.4851 281.76 34.3175 281.375 33.687C280.95 32.9895 280.434 32.3866 279.961 31.8945L272.752 38.8255ZM272.356 37V37.16H282.356V37H272.356ZM272.356 37.16C272.356 36.4183 272.619 35.0299 273.89 33.9615C274.995 33.0333 276.111 33 276.356 33V43C277.268 43 278.884 42.8267 280.322 41.6185C281.928 40.2701 282.356 38.4617 282.356 37.16H272.356ZM276.356 33H264.716V43H276.356V33ZM264.716 33C264.962 33 266.077 33.0333 267.182 33.9615C268.454 35.0299 268.716 36.4183 268.716 37.16H258.716C258.716 38.4617 259.145 40.2701 260.75 41.6185C262.189 42.8267 263.804 43 264.716 43V33ZM268.716 37.16V37H258.716V37.16H268.716ZM268.716 37C268.716 38.2882 268.135 39.0953 267.946 39.3262L260.207 32.9938C259.538 33.8113 258.716 35.1785 258.716 37H268.716ZM267.776 39.5234C267.893 39.395 267.969 39.3291 268 39.3043L261.753 31.4957C261.251 31.8976 260.793 32.3383 260.377 32.7966L267.776 39.5234ZM268.043 39.2698C269.003 38.4844 269.699 37.5077 270.152 36.4496L260.961 32.5104C261.094 32.199 261.337 31.8356 261.71 31.5302L268.043 39.2698ZM270.199 36.3369C270.862 34.6784 270.785 32.9907 270.271 31.5359L260.841 34.8641C260.756 34.6233 260.676 34.2805 260.676 33.86C260.676 33.4309 260.76 33.0078 260.914 32.6231L270.199 36.3369ZM270.279 31.5574L269.639 29.7174L260.194 33.0026L260.834 34.8426L270.279 31.5574ZM264.916 26.36H255.556V36.36H264.916V26.36ZM250.834 29.7174L250.194 31.5574L259.639 34.8426L260.279 33.0026L250.834 29.7174ZM250.201 31.5359C249.688 32.9907 249.611 34.6784 250.274 36.337L259.559 32.623C259.713 33.0078 259.796 33.4309 259.796 33.86C259.796 34.2805 259.716 34.6233 259.631 34.8641L250.201 31.5359ZM250.321 36.4496C250.728 37.4008 251.339 38.3314 252.212 39.1165L258.901 31.6835C259.24 31.9886 259.424 32.3059 259.512 32.5104L250.321 36.4496ZM252.616 39.4437C252.548 39.3944 252.505 39.349 252.487 39.3262L260.226 32.9938C259.728 32.3843 259.152 31.8323 258.497 31.3563L252.616 39.4437ZM252.657 39.5234C252.485 39.3343 251.756 38.4637 251.756 37H261.756C261.756 35.003 260.761 33.5724 260.056 32.7966L252.657 39.5234ZM251.756 37V37.16H261.756V37H251.756ZM251.756 37.16C251.756 36.4183 252.019 35.0299 253.29 33.9615C254.395 33.0333 255.511 33 255.756 33V43C256.668 43 258.284 42.8267 259.722 41.6185C261.328 40.2701 261.756 38.4617 261.756 37.16H251.756ZM255.756 33H249.236V43H255.756V33ZM249.236 33C249.482 33 250.597 33.0333 251.702 33.9615C252.974 35.0299 253.236 36.4183 253.236 37.16H243.236C243.236 38.4617 243.665 40.2701 245.27 41.6185C246.709 42.8267 248.324 43 249.236 43V33ZM253.236 37.16V37H243.236V37.16H253.236ZM253.236 37C253.236 37.5914 253.114 38.0576 253.008 38.3567C252.901 38.655 252.785 38.8557 252.726 38.95C252.62 39.1207 252.588 39.1199 252.772 38.9355L245.701 31.8645C245.219 32.3467 244.686 32.946 244.246 33.65C243.843 34.2952 243.236 35.4703 243.236 37H253.236ZM252.772 38.9355C253.897 37.8106 254.802 36.4726 255.371 34.9213L245.982 31.4787C245.964 31.5274 245.909 31.6561 245.701 31.8645L252.772 38.9355ZM255.341 35.001L262.461 16.561L253.132 12.959L246.012 31.399L255.341 35.001ZM262.478 16.5156C263.581 13.5744 262.28 10.9711 261.357 9.5865L253.036 15.1335C253.155 15.3123 253.058 15.222 252.976 14.8927C252.881 14.5155 252.811 13.8153 253.115 13.0044L262.478 16.5156ZM261.41 9.66805C261.134 9.23675 260.993 8.98968 260.938 8.88373C260.908 8.82664 260.946 8.89134 261.003 9.04032C261.032 9.1175 261.088 9.27256 261.142 9.48482C261.169 9.59434 261.201 9.74011 261.227 9.91508C261.252 10.0873 261.276 10.321 261.276 10.6H251.276C251.276 11.6146 251.583 12.406 251.665 12.6197C251.799 12.9687 251.952 13.28 252.075 13.5163C252.327 13.997 252.645 14.5232 252.983 15.0519L261.41 9.66805ZM261.276 10.6V10.44H251.276V10.6H261.276ZM261.276 10.44C261.276 11.1817 261.014 12.5701 259.742 13.6385C258.637 14.5667 257.522 14.6 257.276 14.6V4.6C256.364 4.6 254.749 4.77332 253.31 5.98148C251.705 7.3299 251.276 9.13834 251.276 10.44H261.276ZM257.276 14.6H263.196V4.6H257.276V14.6ZM263.196 14.6C263.02 14.6 262.572 14.5414 262.102 14.211C261.659 13.9002 261.533 13.5837 261.552 13.6282L270.761 9.7318C270.193 8.38967 269.28 7.03315 267.851 6.02904C266.394 5.00526 264.759 4.6 263.196 4.6V14.6ZM261.525 13.5651L270.285 35.0851L279.547 31.3149L270.787 9.79488L261.525 13.5651ZM256.756 33H263.796V23H256.756V33ZM268.53 26.3908L265.09 16.2708L255.622 19.4892L259.062 29.6092L268.53 26.3908ZM255.646 16.2042L252.046 26.3242L261.467 29.6758L265.067 19.5558L255.646 16.2042Z" fill="black"/>
</svg>
